<svg display='none' xmlns="http://www.w3.org/2000/svg">
    <symbol viewBox="0 0 156 156" id='youtube-icon'>
    <path fill-rule="evenodd" clip-rule='evenodd' d="M48.5371 18.6816C66.9131 15.668 89.0864 15.668 107.462 18.6816C124.159 21.4199 137.096 34.9883 139.571 49.6035C142.567 67.2949 142.567 88.7051 139.571 106.396C137.096 121.012 124.159 134.58 107.463 137.318C89.0864 140.332 66.9131 140.332 48.5371 137.318C31.8418 134.58 18.9043 121.012 16.4292 106.396C13.4326 88.7051 13.4331 67.2949 16.4292 49.6035C18.9043 34.9883 31.8418 21.4199 48.5371 18.6816ZM109.452 2.42383C89.7568 -0.808594 66.2441 -0.808594 46.5479 2.42383C25.1719 5.92969 6.38281 23.5879 2.51221 46.4434C-0.837402 66.2227 -0.837402 89.7773 2.51221 109.557C6.3833 132.412 25.1714 150.07 46.5479 153.576C66.2441 156.809 89.7568 156.809 109.452 153.576C130.829 150.07 149.617 132.412 153.488 109.557C156.837 89.7773 156.837 66.2227 153.488 46.4434C149.617 23.5879 130.829 5.92969 109.452 2.42383ZM67.7515 38.3262C65.5752 36.6465 62.7778 36.4902 60.4722 37.918C58.1665 39.3477 56.7271 42.1289 56.7271 45.1582L56.7271 110.842C56.7271 113.869 58.1665 116.652 60.4722 118.082C62.7778 119.51 65.5752 119.354 67.7515 117.674L110.297 84.832C112.27 83.3086 113.455 80.7461 113.455 78C113.455 75.2539 112.27 72.6914 110.297 71.168L67.7515 38.3262ZM93.5801 78L70.9092 95.5L70.9092 60.5L93.5801 78Z"/>
    </symbol>
    <symbol viewBox="0 0 156 156" id='linkedin-icon'>
    <path fill-rule="evenodd" clip-rule='evenodd' d="M31.2002 0C13.9688 0 0 13.9688 0 31.1992L0 124.801C0 142.031 13.9688 156 31.2002 156L124.8 156C142.031 156 156 142.031 156 124.801L156 31.1992C156 13.9688 142.031 0 124.8 0L31.2002 0ZM15.6001 31.1992C15.6001 22.584 22.5845 15.5996 31.2002 15.5996L124.8 15.5996C133.416 15.5996 140.4 22.584 140.4 31.1992L140.4 124.801C140.4 133.416 133.416 140.4 124.8 140.4L31.2002 140.4C22.5845 140.4 15.6001 133.416 15.6001 124.801L15.6001 31.1992ZM54.6001 70.1992C54.6001 65.8926 51.1079 62.4004 46.7998 62.4004C42.4922 62.4004 39 65.8926 39 70.1992L39 117C39 121.309 42.4922 124.801 46.7998 124.801C51.1079 124.801 54.6001 121.309 54.6001 117L54.6001 70.1992ZM58.5 42.9004C58.5 49.3613 53.2617 54.5996 46.7998 54.5996C40.3384 54.5996 35.1001 49.3613 35.1001 42.9004C35.1001 36.4375 40.3384 31.1992 46.7998 31.1992C53.2617 31.1992 58.5 36.4375 58.5 42.9004ZM78 62.4004C80.6479 62.4004 82.9883 63.7207 84.3984 65.7383C88.3965 63.5723 92.8481 62.4004 97.5 62.4004C114.343 62.4004 124.8 77.4219 124.8 90.2578L124.8 90.3164L124.8 90.375L124.8 90.4336L124.8 90.4941L124.8 90.5527L124.8 90.6133L124.8 90.6719L124.8 90.7324L124.8 90.793L124.8 90.8516L124.8 90.9121L124.8 90.9727L124.8 91.0332L124.8 91.0938L124.8 91.1562L124.8 91.2168L124.8 91.2773L124.8 91.3379L124.8 91.4004L124.8 91.4609L124.8 91.5234L124.8 91.5859L124.8 91.6465L124.8 91.709L124.8 91.7715L124.8 91.834L124.8 91.8965L124.8 91.959L124.8 92.0215L124.8 92.084L124.8 92.1465L124.8 92.2109L124.8 92.2734L124.8 92.3359L124.8 92.4004L124.8 92.4629L124.8 92.5273L124.8 92.5898L124.8 92.6543L124.8 92.7188L124.8 92.7832L124.8 92.8477L124.8 92.9121L124.8 92.9766L124.8 93.041L124.8 93.1055L124.8 93.1699L124.8 93.2344L124.8 93.2988L124.8 93.3652L124.8 93.4297L124.8 93.4961L124.8 93.5605L124.8 93.625L124.8 93.6914L124.8 93.7559L124.8 93.8223L124.8 93.8887L124.8 93.9551L124.8 94.0195L124.8 94.0859L124.8 94.1523L124.8 94.2188L124.8 94.2852L124.8 94.3516L124.8 94.418L124.8 94.4844L124.8 94.5508L124.8 94.6191L124.8 94.6855L124.8 94.752L124.8 94.8184L124.8 94.8867L124.8 94.9531L124.8 95.0215L124.8 95.0879L124.8 95.1562L124.8 95.2227L124.8 95.291L124.8 95.3574L124.8 95.4258L124.8 95.4941L124.8 95.5625L124.8 95.6289L124.8 95.6973L124.8 95.7656L124.8 95.834L124.8 95.9023L124.8 95.9707L124.8 96.0391L124.8 96.1074L124.8 96.1738L124.8 96.2441L124.8 96.3125L124.8 96.3809L124.8 96.4492L124.8 96.5176L124.8 96.5859L124.8 96.6543L124.8 96.7246L124.8 96.793L124.8 96.8613L124.8 96.9297L124.8 97L124.8 97.0684L124.8 97.1387L124.8 97.207L124.8 97.2754L124.8 97.3457L124.8 97.4141L124.8 97.4844L124.8 97.5527L124.8 97.623L124.8 97.6914L124.8 97.7617L124.8 97.8301L124.8 97.9004L124.8 97.9688L124.8 98.0391L124.8 98.1094L124.8 98.1777L124.8 98.248L124.8 98.3184L124.8 98.3867L124.8 98.457L124.8 98.5273L124.8 98.5977L124.8 98.666L124.8 98.7363L124.8 98.8066L124.8 98.875L124.8 98.9453L124.8 99.0156L124.8 99.0859L124.8 99.1543L124.8 99.2246L124.8 99.2949L124.8 99.3652L124.8 99.4355L124.8 99.5039L124.8 99.5742L124.8 99.6445L124.8 99.7148L124.8 99.7852L124.8 99.8555L124.8 99.9238L124.8 99.9941L124.8 100.064L124.8 100.135L124.8 100.205L124.8 100.275L124.8 100.344L124.8 100.414L124.8 100.484L124.8 100.555L124.8 100.623L124.8 100.693L124.8 100.764L124.8 100.834L124.8 100.902L124.8 100.973L124.8 101.043L124.8 101.113L124.8 101.184L124.8 101.252L124.8 101.322L124.8 101.393L124.8 101.461L124.8 101.531L124.8 101.602L124.8 101.67L124.8 101.74L124.8 101.811L124.8 101.879L124.8 101.949L124.8 102.018L124.8 102.088L124.8 102.158L124.8 102.227L124.8 102.297L124.8 102.365L124.8 102.436L124.8 102.504L124.8 102.572L124.8 102.643L124.8 102.713L124.8 102.781L124.8 102.85L124.8 102.918L124.8 102.988L124.8 103.057L124.8 103.127L124.8 103.195L124.8 103.264L124.8 103.332L124.8 103.4L124.8 103.469L124.8 103.537L124.8 103.607L124.8 103.676L124.8 103.744L124.8 103.812L124.8 103.881L124.8 103.949L124.8 104.018L124.8 104.084L124.8 104.152L124.8 104.221L124.8 104.289L124.8 104.355L124.8 104.424L124.8 104.492L124.8 104.561L124.8 104.627L124.8 104.695L124.8 104.762L124.8 104.83L124.8 104.896L124.8 104.965L124.8 105.031L124.8 105.1L124.8 105.166L124.8 105.232L124.8 105.299L124.8 105.367L124.8 105.432L124.8 105.498L124.8 105.566L124.8 105.633L124.8 105.699L124.8 105.766L124.8 105.832L124.8 105.896L124.8 105.963L124.8 106.029L124.8 106.096L124.8 106.16L124.8 106.227L124.8 106.291L124.8 106.357L124.8 106.422L124.8 106.486L124.8 106.553L124.8 106.617L124.8 106.682L124.8 106.746L124.8 106.812L124.8 106.877L124.8 106.941L124.8 107.006L124.8 107.07L124.8 107.133L124.8 107.197L124.8 107.262L124.8 107.326L124.8 107.389L124.8 107.453L124.8 107.518L124.8 107.58L124.8 107.643L124.8 107.707L124.8 107.77L124.8 107.832L124.8 107.895L124.8 107.957L124.8 108.02L124.8 108.082L124.8 108.145L124.8 108.207L124.8 108.27L124.8 108.33L124.8 108.393L124.8 108.455L124.8 108.516L124.8 108.576L124.8 108.639L124.8 108.699L124.8 108.76L124.8 108.82L124.8 108.881L124.8 108.941L124.8 109.002L124.8 109.062L124.8 109.123L124.8 109.184L124.8 109.242L124.8 109.303L124.8 109.361L124.8 109.422L124.8 109.48L124.8 109.539L124.8 109.598L124.8 109.656L124.8 109.715L124.8 109.773L124.8 109.832L124.8 109.891L124.8 109.949L124.8 110.006L124.8 110.064L124.8 110.121L124.8 110.18L124.8 110.236L124.8 110.293L124.8 110.35L124.8 110.406L124.8 110.463L124.8 110.52L124.8 110.576L124.8 110.633L124.8 110.688L124.8 110.744L124.8 110.799L124.8 110.854L124.8 110.91L124.8 110.965L124.8 111.02L124.8 111.074L124.8 111.129L124.8 111.184L124.8 111.236L124.8 111.291L124.8 111.344L124.8 111.398L124.8 111.451L124.8 111.504L124.8 111.557L124.8 111.609L124.8 111.662L124.8 111.715L124.8 111.768L124.8 111.818L124.8 111.871L124.8 111.924L124.8 111.975L124.8 112.025L124.8 112.076L124.8 112.127L124.8 112.178L124.8 112.229L124.8 112.279L124.8 112.328L124.8 112.379L124.8 112.428L124.8 112.479L124.8 112.527L124.8 112.576L124.8 112.625L124.8 112.672L124.8 112.721L124.8 112.77L124.8 112.818L124.8 112.865L124.8 112.912L124.8 112.959L124.8 113.008L124.8 113.055L124.8 113.1L124.8 113.146L124.8 113.193L124.8 113.238L124.8 113.285L124.8 113.33L124.8 113.375L124.8 113.42L124.8 113.465L124.8 113.51L124.8 113.555L124.8 113.598L124.8 113.643L124.8 113.686L124.8 113.729L124.8 113.771L124.8 113.814L124.8 113.857L124.8 113.9L124.8 113.943L124.8 113.984L124.8 114.027L124.8 114.068L124.8 114.109L124.8 114.15L124.8 114.191L124.8 114.232L124.8 114.271L124.8 114.312L124.8 114.352L124.8 114.393L124.8 114.432L124.8 114.469L124.8 114.508L124.8 114.547L124.8 114.586L124.8 114.623L124.8 114.66L124.8 114.697L124.8 114.736L124.8 114.771L124.8 114.809L124.8 114.846L124.8 114.881L124.8 114.918L124.8 114.953L124.8 114.988L124.8 115.023L124.8 115.059L124.8 115.094L124.8 115.127L124.8 115.162L124.8 115.195L124.8 115.229L124.8 115.262L124.8 115.295L124.8 115.326L124.8 115.359L124.8 115.393L124.8 115.422L124.8 115.455L124.8 115.486L124.8 115.516L124.8 115.547L124.8 115.578L124.8 115.607L124.8 115.637L124.8 115.666L124.8 115.695L124.8 115.725L124.8 115.754L124.8 115.781L124.8 115.811L124.8 115.838L124.8 115.865L124.8 115.893L124.8 115.918L124.8 115.945L124.8 115.973L124.8 115.998L124.8 116.023L124.8 116.049L124.8 116.074L124.8 116.098L124.8 116.123L124.8 116.146L124.8 116.17L124.8 116.193L124.8 116.217L124.8 116.24L124.8 116.262L124.8 116.285L124.8 116.307L124.8 116.328L124.8 116.35L124.8 116.369L124.8 116.391L124.8 116.41L124.8 116.43L124.8 116.449L124.8 116.469L124.8 116.488L124.8 116.508L124.8 116.525L124.8 116.543L124.8 116.562L124.8 116.578L124.8 116.596L124.8 116.613L124.8 116.629L124.8 116.645L124.8 116.66L124.8 116.676L124.8 116.689L124.8 116.705L124.8 116.719L124.8 116.732L124.8 116.748L124.8 116.76L124.8 116.773L124.8 116.785L124.8 116.799L124.8 116.811L124.8 116.822L124.8 116.832L124.8 116.844L124.8 116.854L124.8 116.865L124.8 116.873L124.8 116.883L124.8 116.893L124.8 116.9L124.8 116.91L124.8 116.918L124.8 116.932L124.8 116.945L124.8 116.957L124.8 116.969L124.8 116.977L124.8 116.988L124.8 116.996C124.8 121.305 121.308 124.801 117 124.801C112.692 124.801 109.2 121.309 109.2 117L109.2 116.99L109.2 116.98L109.2 116.973L109.2 116.963L109.2 116.951L109.2 116.939L109.2 116.926L109.2 116.91L109.2 116.9L109.2 116.893L109.2 116.883L109.2 116.873L109.2 116.865L109.2 116.854L109.2 116.844L109.2 116.832L109.2 116.822L109.2 116.811L109.2 116.799L109.2 116.785L109.2 116.773L109.2 116.76L109.2 116.748L109.2 116.732L109.2 116.719L109.2 116.705L109.2 116.689L109.2 116.676L109.2 116.66L109.2 116.645L109.2 116.629L109.2 116.613L109.2 116.596L109.2 116.578L109.2 116.562L109.2 116.543L109.2 116.525L109.2 116.508L109.2 116.488L109.2 116.469L109.2 116.449L109.2 116.43L109.2 116.41L109.2 116.391L109.2 116.369L109.2 116.35L109.2 116.328L109.2 116.307L109.2 116.285L109.2 116.262L109.2 116.24L109.2 116.217L109.2 116.193L109.2 116.17L109.2 116.146L109.2 116.123L109.2 116.098L109.2 116.074L109.2 116.049L109.2 116.023L109.2 115.998L109.2 115.973L109.2 115.945L109.2 115.918L109.2 115.893L109.2 115.865L109.2 115.838L109.2 115.811L109.2 115.781L109.2 115.754L109.2 115.725L109.2 115.695L109.2 115.666L109.2 115.637L109.2 115.607L109.2 115.578L109.2 115.547L109.2 115.516L109.2 115.486L109.2 115.455L109.2 115.422L109.2 115.393L109.2 115.359L109.2 115.326L109.2 115.295L109.2 115.262L109.2 115.229L109.2 115.195L109.2 115.162L109.2 115.127L109.2 115.094L109.2 115.059L109.2 115.023L109.2 114.988L109.2 114.953L109.2 114.918L109.2 114.881L109.2 114.846L109.2 114.809L109.2 114.771L109.2 114.736L109.2 114.697L109.2 114.66L109.2 114.623L109.2 114.586L109.2 114.547L109.2 114.508L109.2 114.469L109.2 114.432L109.2 114.393L109.2 114.352L109.2 114.312L109.2 114.271L109.2 114.232L109.2 114.191L109.2 114.15L109.2 114.109L109.2 114.068L109.2 114.027L109.2 113.984L109.2 113.943L109.2 113.9L109.2 113.857L109.2 113.814L109.2 113.771L109.2 113.729L109.2 113.686L109.2 113.643L109.2 113.598L109.2 113.555L109.2 113.51L109.2 113.465L109.2 113.42L109.2 113.375L109.2 113.33L109.2 113.285L109.2 113.238L109.2 113.193L109.2 113.146L109.2 113.1L109.2 113.055L109.2 113.008L109.2 112.959L109.2 112.912L109.2 112.865L109.2 112.818L109.2 112.77L109.2 112.721L109.2 112.672L109.2 112.625L109.2 112.576L109.2 112.527L109.2 112.479L109.2 112.428L109.2 112.379L109.2 112.328L109.2 112.279L109.2 112.229L109.2 112.178L109.2 112.127L109.2 112.076L109.2 112.025L109.2 111.975L109.2 111.924L109.2 111.871L109.2 111.818L109.2 111.768L109.2 111.715L109.2 111.662L109.2 111.609L109.2 111.557L109.2 111.504L109.2 111.451L109.2 111.398L109.2 111.344L109.2 111.291L109.2 111.236L109.2 111.184L109.2 111.129L109.2 111.074L109.2 111.02L109.2 110.965L109.2 110.91L109.2 110.854L109.2 110.799L109.2 110.744L109.2 110.688L109.2 110.633L109.2 110.576L109.2 110.52L109.2 110.463L109.2 110.406L109.2 110.35L109.2 110.293L109.2 110.236L109.2 110.18L109.2 110.121L109.2 110.064L109.2 110.006L109.2 109.949L109.2 109.891L109.2 109.832L109.2 109.773L109.2 109.715L109.2 109.656L109.2 109.598L109.2 109.539L109.2 109.48L109.2 109.422L109.2 109.361L109.2 109.303L109.2 109.242L109.2 109.184L109.2 109.123L109.2 109.062L109.2 109.002L109.2 108.941L109.2 108.881L109.2 108.82L109.2 108.76L109.2 108.699L109.2 108.639L109.2 108.576L109.2 108.516L109.2 108.455L109.2 108.393L109.2 108.33L109.2 108.27L109.2 108.207L109.2 108.145L109.2 108.082L109.2 108.02L109.2 107.957L109.2 107.895L109.2 107.832L109.2 107.77L109.2 107.707L109.2 107.643L109.2 107.58L109.2 107.518L109.2 107.453L109.2 107.389L109.2 107.326L109.2 107.262L109.2 107.197L109.2 107.133L109.2 107.07L109.2 107.006L109.2 106.941L109.2 106.877L109.2 106.812L109.2 106.746L109.2 106.682L109.2 106.617L109.2 106.553L109.2 106.486L109.2 106.422L109.2 106.357L109.2 106.291L109.2 106.227L109.2 106.16L109.2 106.096L109.2 106.029L109.2 105.963L109.2 105.896L109.2 105.832L109.2 105.766L109.2 105.699L109.2 105.633L109.2 105.566L109.2 105.498L109.2 105.432L109.2 105.367L109.2 105.299L109.2 105.232L109.2 105.166L109.2 105.1L109.2 105.031L109.2 104.965L109.2 104.896L109.2 104.83L109.2 104.762L109.2 104.695L109.2 104.627L109.2 104.561L109.2 104.492L109.2 104.424L109.2 104.355L109.2 104.289L109.2 104.221L109.2 104.152L109.2 104.084L109.2 104.018L109.2 103.949L109.2 103.881L109.2 103.812L109.2 103.744L109.2 103.676L109.2 103.607L109.2 103.537L109.2 103.469L109.2 103.4L109.2 103.332L109.2 103.264L109.2 103.195L109.2 103.127L109.2 103.057L109.2 102.988L109.2 102.918L109.2 102.85L109.2 102.781L109.2 102.713L109.2 102.643L109.2 102.572L109.2 102.504L109.2 102.436L109.2 102.365L109.2 102.297L109.2 102.227L109.2 102.158L109.2 102.088L109.2 102.018L109.2 101.949L109.2 101.879L109.2 101.811L109.2 101.74L109.2 101.67L109.2 101.602L109.2 101.531L109.2 101.461L109.2 101.393L109.2 101.322L109.2 101.252L109.2 101.184L109.2 101.113L109.2 101.043L109.2 100.973L109.2 100.902L109.2 100.834L109.2 100.764L109.2 100.693L109.2 100.623L109.2 100.555L109.2 100.484L109.2 100.414L109.2 100.344L109.2 100.275L109.2 100.205L109.2 100.135L109.2 100.064L109.2 99.9941L109.2 99.9238L109.2 99.8555L109.2 99.7852L109.2 99.7148L109.2 99.6445L109.2 99.5742L109.2 99.5039L109.2 99.4355L109.2 99.3652L109.2 99.2949L109.2 99.2246L109.2 99.1543L109.2 99.0859L109.2 99.0156L109.2 98.9453L109.2 98.875L109.2 98.8066L109.2 98.7363L109.2 98.666L109.2 98.5977L109.2 98.5273L109.2 98.457L109.2 98.3867L109.2 98.3184L109.2 98.248L109.2 98.1777L109.2 98.1094L109.2 98.0391L109.2 97.9688L109.2 97.9004L109.2 97.8301L109.2 97.7617L109.2 97.6914L109.2 97.623L109.2 97.5527L109.2 97.4844L109.2 97.4141L109.2 97.3457L109.2 97.2754L109.2 97.207L109.2 97.1387L109.2 97.0684L109.2 97L109.2 96.9297L109.2 96.8613L109.2 96.793L109.2 96.7246L109.2 96.6543L109.2 96.5859L109.2 96.5176L109.2 96.4492L109.2 96.3809L109.2 96.3125L109.2 96.2441L109.2 96.1738L109.2 96.1074L109.2 96.0391L109.2 95.9707L109.2 95.9023L109.2 95.834L109.2 95.7656L109.2 95.6973L109.2 95.6289L109.2 95.5625L109.2 95.4941L109.2 95.4258L109.2 95.3574L109.2 95.291L109.2 95.2227L109.2 95.1562L109.2 95.0879L109.2 95.0215L109.2 94.9531L109.2 94.8867L109.2 94.8184L109.2 94.752L109.2 94.6855L109.2 94.6191L109.2 94.5508L109.2 94.4844L109.2 94.418L109.2 94.3516L109.2 94.2852L109.2 94.2188L109.2 94.1523L109.2 94.0859L109.2 94.0195L109.2 93.9551L109.2 93.8887L109.2 93.8223L109.2 93.7559L109.2 93.6914L109.2 93.625L109.2 93.5605L109.2 93.4961L109.2 93.4297L109.2 93.3652L109.2 93.2988L109.2 93.2344L109.2 93.1699L109.2 93.1055L109.2 93.041L109.2 92.9766L109.2 92.9121L109.2 92.8477L109.2 92.7832L109.2 92.7188L109.2 92.6543L109.2 92.5898L109.2 92.5273L109.2 92.4629L109.2 92.4004L109.2 92.3359L109.2 92.2734L109.2 92.2109L109.2 92.1465L109.2 92.084L109.2 92.0215L109.2 91.959L109.2 91.8965L109.2 91.834L109.2 91.7715L109.2 91.709L109.2 91.6465L109.2 91.5859L109.2 91.5234L109.2 91.4609L109.2 91.4004L109.2 91.3379L109.2 91.2773L109.2 91.2168L109.2 91.1562L109.2 91.0938L109.2 91.0332L109.2 90.9727L109.2 90.9121L109.2 90.8516L109.2 90.793L109.2 90.7324L109.2 90.6719L109.2 90.6133L109.2 90.5527L109.2 90.4941L109.2 90.4336L109.2 90.375L109.2 90.3164L109.2 90.2578C109.2 84.2656 104.057 78 97.5 78C93.4121 78 88.8999 80.2227 85.7998 85.5117L85.7998 85.5332L85.7998 85.6133L85.7998 85.6934L85.7998 85.7734L85.7998 85.8555L85.7998 85.9355L85.7998 86.0176L85.7998 86.0977L85.7998 86.1797L85.7998 86.2617L85.7998 86.3418L85.7998 86.4238L85.7998 86.5059L85.7998 86.5879L85.7998 86.6699L85.7998 86.752L85.7998 86.834L85.7998 86.916L85.7998 86.998L85.7998 87.082L85.7998 87.1641L85.7998 87.2461L85.7998 87.3301L85.7998 87.4121L85.7998 87.4961L85.7998 87.5801L85.7998 87.6621L85.7998 87.7461L85.7998 87.8301L85.7998 87.9141L85.7998 87.998L85.7998 88.082L85.7998 88.166L85.7998 88.25L85.7998 88.334L85.7998 88.418L85.7998 88.502L85.7998 88.5879L85.7998 88.6719L85.7998 88.7559L85.7998 88.8398L85.7998 88.9258L85.7998 89.0098L85.7998 89.0957L85.7998 89.1797L85.7998 89.2656L85.7998 89.3496L85.7998 89.4355L85.7998 89.5215L85.7998 89.6074L85.7998 89.6914L85.7998 89.7773L85.7998 89.8633L85.7998 89.9492L85.7998 90.0352L85.7998 90.1211L85.7998 90.207L85.7998 90.293L85.7998 90.3789L85.7998 90.4648L85.7998 90.5508L85.7998 90.6387L85.7998 90.7246L85.7998 90.8105L85.7998 90.8965L85.7998 90.9844L85.7998 91.0703L85.7998 91.1562L85.7998 91.2441L85.7998 91.3301L85.7998 91.418L85.7998 91.5039L85.7998 91.5898L85.7998 91.6777L85.7998 91.7656L85.7998 91.8516L85.7998 91.9395L85.7998 92.0254L85.7998 92.1133L85.7998 92.2012L85.7998 92.2871L85.7998 92.375L85.7998 92.4629L85.7998 92.5488L85.7998 92.6367L85.7998 92.7246L85.7998 92.8125L85.7998 92.9004L85.7998 92.9863L85.7998 93.0742L85.7998 93.1621L85.7998 93.25L85.7998 93.3379L85.7998 93.4238L85.7998 93.5117L85.7998 93.5996L85.7998 93.6875L85.7998 93.7754L85.7998 93.8633L85.7998 93.9512L85.7998 94.0391L85.7998 94.127L85.7998 94.2148L85.7998 94.3027L85.7998 94.3906L85.7998 94.4766L85.7998 94.5664L85.7998 94.6523L85.7998 94.7402L85.7998 94.8301L85.7998 94.916L85.7998 95.0039L85.7998 95.0918L85.7998 95.1797L85.7998 95.2676L85.7998 95.3555L85.7998 95.4434L85.7998 95.5312L85.7998 95.6191L85.7998 95.707L85.7998 95.7949L85.7998 95.8828L85.7998 95.9707L85.7998 96.0586L85.7998 96.1465L85.7998 96.2324L85.7998 96.3223L85.7998 96.4082L85.7998 96.4961L85.7998 96.584L85.7998 96.6719L85.7998 96.7598L85.7998 96.8477L85.7998 96.9336L85.7998 97.0215L85.7998 97.1094L85.7998 97.1973L85.7998 97.2832L85.7998 97.3711L85.7998 97.459L85.7998 97.5469L85.7998 97.6328L85.7998 97.7207L85.7998 97.8086L85.7998 97.8945L85.7998 97.9824L85.7998 98.0703L85.7998 98.1562L85.7998 98.2441L85.7998 98.3301L85.7998 98.418L85.7998 98.5039L85.7998 98.5898L85.7998 98.6777L85.7998 98.7637L85.7998 98.8516L85.7998 98.9375L85.7998 99.0234L85.7998 99.1094L85.7998 99.1973L85.7998 99.2832L85.7998 99.3691L85.7998 99.4551L85.7998 99.541L85.7998 99.627L85.7998 99.7129L85.7998 99.7988L85.7998 99.8848L85.7998 99.9707L85.7998 100.057L85.7998 100.143L85.7998 100.229L85.7998 100.312L85.7998 100.398L85.7998 100.484L85.7998 100.57L85.7998 100.654L85.7998 100.74L85.7998 100.824L85.7998 100.91L85.7998 100.996L85.7998 101.08L85.7998 101.164L85.7998 101.248L85.7998 101.334L85.7998 101.418L85.7998 101.502L85.7998 101.586L85.7998 101.67L85.7998 101.756L85.7998 101.838L85.7998 101.922L85.7998 102.006L85.7998 102.09L85.7998 102.174L85.7998 102.256L85.7998 102.34L85.7998 102.424L85.7998 102.506L85.7998 102.59L85.7998 102.672L85.7998 102.754L85.7998 102.838L85.7998 102.92L85.7998 103.002L85.7998 103.086L85.7998 103.168L85.7998 103.25L85.7998 103.332L85.7998 103.414L85.7998 103.494L85.7998 103.576L85.7998 103.658L85.7998 103.738L85.7998 103.82L85.7998 103.902L85.7998 103.982L85.7998 104.064L85.7998 104.145L85.7998 104.225L85.7998 104.305L85.7998 104.387L85.7998 104.467L85.7998 104.545L85.7998 104.627L85.7998 104.705L85.7998 104.785L85.7998 104.865L85.7998 104.943L85.7998 105.023L85.7998 105.104L85.7998 105.182L85.7998 105.26L85.7998 105.338L85.7998 105.418L85.7998 105.494L85.7998 105.572L85.7998 105.65L85.7998 105.729L85.7998 105.807L85.7998 105.885L85.7998 105.961L85.7998 106.039L85.7998 106.115L85.7998 106.191L85.7998 106.27L85.7998 106.346L85.7998 106.422L85.7998 106.498L85.7998 106.574L85.7998 106.65L85.7998 106.727L85.7998 106.801L85.7998 106.877L85.7998 106.951L85.7998 107.027L85.7998 107.102L85.7998 107.176L85.7998 107.25L85.7998 107.324L85.7998 107.398L85.7998 107.473L85.7998 107.547L85.7998 107.619L85.7998 107.693L85.7998 107.766L85.7998 107.84L85.7998 107.912L85.7998 107.984L85.7998 108.057L85.7998 108.129L85.7998 108.201L85.7998 108.273L85.7998 108.344L85.7998 108.416L85.7998 108.486L85.7998 108.559L85.7998 108.629L85.7998 108.699L85.7998 108.77L85.7998 108.84L85.7998 108.908L85.7998 108.979L85.7998 109.049L85.7998 109.117L85.7998 109.188L85.7998 109.256L85.7998 109.324L85.7998 109.393L85.7998 109.461L85.7998 109.529L85.7998 109.596L85.7998 109.664L85.7998 109.73L85.7998 109.799L85.7998 109.865L85.7998 109.932L85.7998 109.998L85.7998 110.064L85.7998 110.131L85.7998 110.195L85.7998 110.262L85.7998 110.326L85.7998 110.391L85.7998 110.455L85.7998 110.521L85.7998 110.586L85.7998 110.648L85.7998 110.713L85.7998 110.777L85.7998 110.84L85.7998 110.902L85.7998 110.965L85.7998 111.027L85.7998 111.09L85.7998 111.152L85.7998 111.215L85.7998 111.275L85.7998 111.336L85.7998 111.396L85.7998 111.459L85.7998 111.52L85.7998 111.578L85.7998 111.639L85.7998 111.699L85.7998 111.758L85.7998 111.818L85.7998 111.877L85.7998 111.936L85.7998 111.994L85.7998 112.051L85.7998 112.109L85.7998 112.166L85.7998 112.225L85.7998 112.281L85.7998 112.338L85.7998 112.395L85.7998 112.451L85.7998 112.506L85.7998 112.562L85.7998 112.617L85.7998 112.672L85.7998 112.727L85.7998 112.781L85.7998 112.836L85.7998 112.889L85.7998 112.943L85.7998 112.996L85.7998 113.049L85.7998 113.102L85.7998 113.154L85.7998 113.207L85.7998 113.258L85.7998 113.311L85.7998 113.361L85.7998 113.412L85.7998 113.463L85.7998 113.512L85.7998 113.562L85.7998 113.613L85.7998 113.662L85.7998 113.711L85.7998 113.76L85.7998 113.809L85.7998 113.857L85.7998 113.904L85.7998 113.951L85.7998 114L85.7998 114.047L85.7998 114.092L85.7998 114.139L85.7998 114.186L85.7998 114.23L85.7998 114.275L85.7998 114.32L85.7998 114.365L85.7998 114.41L85.7998 114.453L85.7998 114.496L85.7998 114.541L85.7998 114.584L85.7998 114.625L85.7998 114.668L85.7998 114.709L85.7998 114.752L85.7998 114.793L85.7998 114.834L85.7998 114.875L85.7998 114.916L85.7998 114.955L85.7998 114.994L85.7998 115.033L85.7998 115.072L85.7998 115.111L85.7998 115.148L85.7998 115.188L85.7998 115.225L85.7998 115.262L85.7998 115.299L85.7998 115.334L85.7998 115.371L85.7998 115.406L85.7998 115.441L85.7998 115.477L85.7998 115.512L85.7998 115.547L85.7998 115.58L85.7998 115.613L85.7998 115.646L85.7998 115.68L85.7998 115.711L85.7998 115.744L85.7998 115.775L85.7998 115.807L85.7998 115.838L85.7998 115.869L85.7998 115.898L85.7998 115.928L85.7998 115.957L85.7998 115.986L85.7998 116.016L85.7998 116.043L85.7998 116.072L85.7998 116.1L85.7998 116.127L85.7998 116.152L85.7998 116.18L85.7998 116.205L85.7998 116.23L85.7998 116.256L85.7998 116.281L85.7998 116.305L85.7998 116.33L85.7998 116.354L85.7998 116.377L85.7998 116.398L85.7998 116.422L85.7998 116.443L85.7998 116.465L85.7998 116.486L85.7998 116.506L85.7998 116.527L85.7998 116.547L85.7998 116.566L85.7998 116.586L85.7998 116.604L85.7998 116.623L85.7998 116.641L85.7998 116.658L85.7998 116.674L85.7998 116.691L85.7998 116.707L85.7998 116.723L85.7998 116.738L85.7998 116.754L85.7998 116.768L85.7998 116.783L85.7998 116.795L85.7998 116.809L85.7998 116.822L85.7998 116.834L85.7998 116.846L85.7998 116.857L85.7998 116.869L85.7998 116.879L85.7998 116.889L85.7998 116.898L85.7998 116.908L85.7998 116.918L85.7998 116.926L85.7998 116.934L85.7998 116.949L85.7998 116.961L85.7998 116.973L85.7998 116.98L85.7998 116.992L85.7998 117C85.7998 121.307 82.3081 124.801 78 124.801C73.6919 124.801 70.2002 121.309 70.2002 117L70.2002 116.992L70.2002 116.98L70.2002 116.973L70.2002 116.961L70.2002 116.949L70.2002 116.934L70.2002 116.926L70.2002 116.918L70.2002 116.908L70.2002 116.898L70.2002 116.889L70.2002 116.879L70.2002 116.869L70.2002 116.857L70.2002 116.846L70.2002 116.834L70.2002 116.822L70.2002 116.809L70.2002 116.795L70.2002 116.783L70.2002 116.768L70.2002 116.754L70.2002 116.738L70.2002 116.723L70.2002 116.707L70.2002 116.691L70.2002 116.674L70.2002 116.658L70.2002 116.641L70.2002 116.623L70.2002 116.604L70.2002 116.586L70.2002 116.566L70.2002 116.547L70.2002 116.527L70.2002 116.506L70.2002 116.486L70.2002 116.465L70.2002 116.443L70.2002 116.422L70.2002 116.398L70.2002 116.377L70.2002 116.354L70.2002 116.33L70.2002 116.305L70.2002 116.281L70.2002 116.256L70.2002 116.23L70.2002 116.205L70.2002 116.18L70.2002 116.152L70.2002 116.127L70.2002 116.1L70.2002 116.072L70.2002 116.043L70.2002 116.016L70.2002 115.986L70.2002 115.957L70.2002 115.928L70.2002 115.898L70.2002 115.869L70.2002 115.838L70.2002 115.807L70.2002 115.775L70.2002 115.744L70.2002 115.711L70.2002 115.68L70.2002 115.646L70.2002 115.613L70.2002 115.58L70.2002 115.547L70.2002 115.512L70.2002 115.477L70.2002 115.441L70.2002 115.406L70.2002 115.371L70.2002 115.334L70.2002 115.299L70.2002 115.262L70.2002 115.225L70.2002 115.188L70.2002 115.148L70.2002 115.111L70.2002 115.072L70.2002 115.033L70.2002 114.994L70.2002 114.955L70.2002 114.916L70.2002 114.875L70.2002 114.834L70.2002 114.793L70.2002 114.752L70.2002 114.709L70.2002 114.668L70.2002 114.625L70.2002 114.584L70.2002 114.541L70.2002 114.496L70.2002 114.453L70.2002 114.41L70.2002 114.365L70.2002 114.32L70.2002 114.275L70.2002 114.23L70.2002 114.186L70.2002 114.139L70.2002 114.092L70.2002 114.047L70.2002 114L70.2002 113.951L70.2002 113.904L70.2002 113.857L70.2002 113.809L70.2002 113.76L70.2002 113.711L70.2002 113.662L70.2002 113.613L70.2002 113.562L70.2002 113.512L70.2002 113.463L70.2002 113.412L70.2002 113.361L70.2002 113.311L70.2002 113.258L70.2002 113.207L70.2002 113.154L70.2002 113.102L70.2002 113.049L70.2002 112.996L70.2002 112.943L70.2002 112.889L70.2002 112.836L70.2002 112.781L70.2002 112.727L70.2002 112.672L70.2002 112.617L70.2002 112.562L70.2002 112.506L70.2002 112.451L70.2002 112.395L70.2002 112.338L70.2002 112.281L70.2002 112.225L70.2002 112.166L70.2002 112.109L70.2002 112.051L70.2002 111.994L70.2002 111.936L70.2002 111.877L70.2002 111.818L70.2002 111.758L70.2002 111.699L70.2002 111.639L70.2002 111.578L70.2002 111.52L70.2002 111.459L70.2002 111.396L70.2002 111.336L70.2002 111.275L70.2002 111.215L70.2002 111.152L70.2002 111.09L70.2002 111.027L70.2002 110.965L70.2002 110.902L70.2002 110.84L70.2002 110.777L70.2002 110.713L70.2002 110.648L70.2002 110.586L70.2002 110.521L70.2002 110.455L70.2002 110.391L70.2002 110.326L70.2002 110.262L70.2002 110.195L70.2002 110.131L70.2002 110.064L70.2002 109.998L70.2002 109.932L70.2002 109.865L70.2002 109.799L70.2002 109.73L70.2002 109.664L70.2002 109.596L70.2002 109.529L70.2002 109.461L70.2002 109.393L70.2002 109.324L70.2002 109.256L70.2002 109.188L70.2002 109.117L70.2002 109.049L70.2002 108.979L70.2002 108.908L70.2002 108.84L70.2002 108.77L70.2002 108.699L70.2002 108.629L70.2002 108.559L70.2002 108.486L70.2002 108.416L70.2002 108.344L70.2002 108.273L70.2002 108.201L70.2002 108.129L70.2002 108.057L70.2002 107.984L70.2002 107.912L70.2002 107.84L70.2002 107.766L70.2002 107.693L70.2002 107.619L70.2002 107.547L70.2002 107.473L70.2002 107.398L70.2002 107.324L70.2002 107.25L70.2002 107.176L70.2002 107.102L70.2002 107.027L70.2002 106.951L70.2002 106.877L70.2002 106.801L70.2002 106.727L70.2002 106.65L70.2002 106.574L70.2002 106.498L70.2002 106.422L70.2002 106.346L70.2002 106.27L70.2002 106.191L70.2002 106.115L70.2002 106.039L70.2002 105.961L70.2002 105.885L70.2002 105.807L70.2002 105.729L70.2002 105.65L70.2002 105.572L70.2002 105.494L70.2002 105.418L70.2002 105.338L70.2002 105.26L70.2002 105.182L70.2002 105.104L70.2002 105.023L70.2002 104.943L70.2002 104.865L70.2002 104.785L70.2002 104.705L70.2002 104.627L70.2002 104.545L70.2002 104.467L70.2002 104.387L70.2002 104.305L70.2002 104.225L70.2002 104.145L70.2002 104.064L70.2002 103.982L70.2002 103.902L70.2002 103.82L70.2002 103.738L70.2002 103.658L70.2002 103.576L70.2002 103.494L70.2002 103.414L70.2002 103.332L70.2002 103.25L70.2002 103.168L70.2002 103.086L70.2002 103.002L70.2002 102.92L70.2002 102.838L70.2002 102.754L70.2002 102.672L70.2002 102.59L70.2002 102.506L70.2002 102.424L70.2002 102.34L70.2002 102.256L70.2002 102.174L70.2002 102.09L70.2002 102.006L70.2002 101.922L70.2002 101.838L70.2002 101.756L70.2002 101.67L70.2002 101.586L70.2002 101.502L70.2002 101.418L70.2002 101.334L70.2002 101.248L70.2002 101.164L70.2002 101.08L70.2002 100.996L70.2002 100.91L70.2002 100.824L70.2002 100.74L70.2002 100.654L70.2002 100.57L70.2002 100.484L70.2002 100.398L70.2002 100.312L70.2002 100.229L70.2002 100.143L70.2002 100.057L70.2002 99.9707L70.2002 99.8848L70.2002 99.7988L70.2002 99.7129L70.2002 99.627L70.2002 99.541L70.2002 99.4551L70.2002 99.3691L70.2002 99.2832L70.2002 99.1973L70.2002 99.1094L70.2002 99.0234L70.2002 98.9375L70.2002 98.8516L70.2002 98.7637L70.2002 98.6777L70.2002 98.5898L70.2002 98.5039L70.2002 98.418L70.2002 98.3301L70.2002 98.2441L70.2002 98.1562L70.2002 98.0703L70.2002 97.9824L70.2002 97.8945L70.2002 97.8086L70.2002 97.7207L70.2002 97.6328L70.2002 97.5469L70.2002 97.459L70.2002 97.3711L70.2002 97.2832L70.2002 97.1973L70.2002 97.1094L70.2002 97.0215L70.2002 96.9336L70.2002 96.8477L70.2002 96.7598L70.2002 96.6719L70.2002 96.584L70.2002 96.4961L70.2002 96.4082L70.2002 96.3223L70.2002 96.2324L70.2002 96.1465L70.2002 96.0586L70.2002 95.9707L70.2002 95.8828L70.2002 95.7949L70.2002 95.707L70.2002 95.6191L70.2002 95.5312L70.2002 95.4434L70.2002 95.3555L70.2002 95.2676L70.2002 95.1797L70.2002 95.0918L70.2002 95.0039L70.2002 94.916L70.2002 94.8301L70.2002 94.7402L70.2002 94.6523L70.2002 94.5664L70.2002 94.4766L70.2002 94.3906L70.2002 94.3027L70.2002 94.2148L70.2002 94.127L70.2002 94.0391L70.2002 93.9512L70.2002 93.8633L70.2002 93.7754L70.2002 93.6875L70.2002 93.5996L70.2002 93.5117L70.2002 93.4238L70.2002 93.3379L70.2002 93.25L70.2002 93.1621L70.2002 93.0742L70.2002 92.9863L70.2002 92.9004L70.2002 92.8125L70.2002 92.7246L70.2002 92.6367L70.2002 92.5488L70.2002 92.4629L70.2002 92.375L70.2002 92.2871L70.2002 92.2012L70.2002 92.1133L70.2002 92.0254L70.2002 91.9395L70.2002 91.8516L70.2002 91.7656L70.2002 91.6777L70.2002 91.5898L70.2002 91.5039L70.2002 91.418L70.2002 91.3301L70.2002 91.2441L70.2002 91.1562L70.2002 91.0703L70.2002 90.9844L70.2002 90.8965L70.2002 90.8105L70.2002 90.7246L70.2002 90.6387L70.2002 90.5508L70.2002 90.4648L70.2002 90.3789L70.2002 90.293L70.2002 90.207L70.2002 90.1211L70.2002 90.0352L70.2002 89.9492L70.2002 89.8633L70.2002 89.7773L70.2002 89.6914L70.2002 89.6074L70.2002 89.5215L70.2002 89.4355L70.2002 89.3496L70.2002 89.2656L70.2002 89.1797L70.2002 89.0957L70.2002 89.0098L70.2002 88.9258L70.2002 88.8398L70.2002 88.7559L70.2002 88.6719L70.2002 88.5879L70.2002 88.502L70.2002 88.418L70.2002 88.334L70.2002 88.25L70.2002 88.166L70.2002 88.082L70.2002 87.998L70.2002 87.9141L70.2002 87.8301L70.2002 87.7461L70.2002 87.6621L70.2002 87.5801L70.2002 87.4961L70.2002 87.4121L70.2002 87.3301L70.2002 87.2461L70.2002 87.1641L70.2002 87.082L70.2002 86.998L70.2002 86.916L70.2002 86.834L70.2002 86.752L70.2002 86.6699L70.2002 86.5879L70.2002 86.5059L70.2002 86.4238L70.2002 86.3418L70.2002 86.2617L70.2002 86.1797L70.2002 86.0977L70.2002 86.0176L70.2002 85.9355L70.2002 85.8555L70.2002 85.7734L70.2002 85.6934L70.2002 85.6133L70.2002 85.5332L70.2002 85.4531L70.2002 85.373L70.2002 85.293L70.2002 85.2129L70.2002 85.1328L70.2002 85.0527L70.2002 84.9746L70.2002 84.8945L70.2002 84.8164L70.2002 84.7363L70.2002 84.6582L70.2002 84.5801L70.2002 84.502L70.2002 84.4219L70.2002 84.3438L70.2002 84.2656L70.2002 84.1895L70.2002 84.1113L70.2002 84.0332L70.2002 83.957L70.2002 83.8789L70.2002 83.8008L70.2002 83.7246L70.2002 83.6484L70.2002 83.5723L70.2002 83.541L70.2002 83.5098L70.2002 83.4805L70.2002 83.4492L70.2002 83.418L70.2002 83.3867L70.2002 83.3555L70.2002 83.3242L70.2002 83.293L70.2002 83.2617L70.2002 83.2305L70.2002 83.1992L70.2002 83.168L70.2002 83.1367L70.2002 83.1055L70.2002 83.0742L70.2002 83.041L70.2002 83.0098L70.2002 82.9785L70.2002 82.9473L70.2002 82.9141L70.2002 82.8828L70.2002 82.8516L70.2002 82.8184L70.2002 82.7871L70.2002 82.7539L70.2002 82.7227L70.2002 82.6895L70.2002 82.6582L70.2002 82.625L70.2002 82.5938L70.2002 82.5605L70.2002 82.5273L70.2002 82.4961L70.2002 82.4629L70.2002 82.4297L70.2002 82.3984L70.2002 82.3652L70.2002 82.332L70.2002 82.2988L70.2002 82.2656L70.2002 82.2324L70.2002 82.2012L70.2002 82.168L70.2002 82.1348L70.2002 82.1016L70.2002 82.0684L70.2002 82.0352L70.2002 82.002L70.2002 81.9688L70.2002 81.9355L70.2002 81.9023L70.2002 81.8672L70.2002 81.834L70.2002 81.8008L70.2002 81.7676L70.2002 81.7344L70.2002 81.7012L70.2002 81.666L70.2002 81.6328L70.2002 81.5996L70.2002 81.5645L70.2002 81.5312L70.2002 81.498L70.2002 81.4648L70.2002 81.4297L70.2002 81.3965L70.2002 81.3613L70.2002 81.3281L70.2002 81.293L70.2002 81.2598L70.2002 81.2246L70.2002 81.1914L70.2002 81.1582L70.2002 81.123L70.2002 81.0879L70.2002 81.0547L70.2002 81.0195L70.2002 80.9863L70.2002 80.9512L70.2002 80.918L70.2002 80.8828L70.2002 80.8477L70.2002 80.8125L70.2002 80.7793L70.2002 80.7441L70.2002 80.7109L70.2002 80.6758L70.2002 80.6406L70.2002 80.6074L70.2002 80.5723L70.2002 80.5371L70.2002 80.502L70.2002 80.4688L70.2002 80.4336L70.2002 80.3984L70.2002 80.3633L70.2002 80.3281L70.2002 80.2949L70.2002 80.2598L70.2002 80.2246L70.2002 80.1895L70.2002 80.1543L70.2002 80.1191L70.2002 80.084L70.2002 80.0508L70.2002 80.0156L70.2002 79.9805L70.2002 79.9453L70.2002 79.9102L70.2002 79.875L70.2002 79.8398L70.2002 79.8047L70.2002 79.7715L70.2002 79.7363L70.2002 79.7012L70.2002 79.666L70.2002 79.6309L70.2002 79.5957L70.2002 79.5605L70.2002 79.5254L70.2002 79.4902L70.2002 79.4551L70.2002 79.4199L70.2002 79.3848L70.2002 79.3496L70.2002 79.3145L70.2002 79.2793L70.2002 79.2441L70.2002 79.209L70.2002 79.1738L70.2002 79.1387L70.2002 79.1035L70.2002 79.0684L70.2002 79.0332L70.2002 78.998L70.2002 78.9629L70.2002 78.9277L70.2002 78.8926L70.2002 78.8574L70.2002 78.8223L70.2002 78.7871L70.2002 78.752L70.2002 78.7168L70.2002 78.6816L70.2002 78.6465L70.2002 78.6113L70.2002 78.5762L70.2002 78.541L70.2002 78.5059L70.2002 78.4707L70.2002 78.4375L70.2002 78.4023L70.2002 78.3672L70.2002 78.332L70.2002 78.2969L70.2002 78.2617L70.2002 78.2266L70.2002 78.1914L70.2002 78.1562L70.2002 78.1211L70.2002 78.0859L70.2002 78.0508L70.2002 78.0156L70.2002 77.9805L70.2002 77.9473L70.2002 77.9121L70.2002 77.877L70.2002 77.8418L70.2002 77.8066L70.2002 77.7715L70.2002 77.7363L70.2002 77.7031L70.2002 77.668L70.2002 77.6328L70.2002 77.5977L70.2002 77.5645L70.2002 77.5293L70.2002 77.4941L70.2002 77.459L70.2002 77.4258L70.2002 77.3906L70.2002 77.3555L70.2002 77.3223L70.2002 77.2871L70.2002 77.252L70.2002 77.2168L70.2002 77.1836L70.2002 77.1484L70.2002 77.1152L70.2002 77.0801L70.2002 77.0469L70.2002 77.0117L70.2002 76.9766L70.2002 76.9434L70.2002 76.9082L70.2002 76.875L70.2002 76.8398L70.2002 76.8066L70.2002 76.7715L70.2002 76.7383L70.2002 76.7031L70.2002 76.6699L70.2002 76.6367L70.2002 76.6016L70.2002 76.5684L70.2002 76.5352L70.2002 76.5L70.2002 76.4668L70.2002 76.4336L70.2002 76.4004L70.2002 76.3652L70.2002 76.332L70.2002 76.2988L70.2002 76.2637L70.2002 76.2305L70.2002 76.1973L70.2002 76.1641L70.2002 76.1309L70.2002 76.0977L70.2002 76.0645L70.2002 76.0312L70.2002 75.998L70.2002 75.9648L70.2002 75.9297L70.2002 75.8984L70.2002 75.8652L70.2002 75.832L70.2002 75.7988L70.2002 75.7656L70.2002 75.7324L70.2002 75.7012L70.2002 75.668L70.2002 75.6348L70.2002 75.6016L70.2002 75.5703L70.2002 75.5371L70.2002 75.5039L70.2002 75.4727L70.2002 75.4395L70.2002 75.4062L70.2002 75.375L70.2002 75.3418L70.2002 75.3105L70.2002 75.2773L70.2002 75.2461L70.2002 75.2129L70.2002 75.1816L70.2002 75.1504L70.2002 75.1172L70.2002 75.0859L70.2002 75.0547L70.2002 75.0234L70.2002 74.9902L70.2002 74.959L70.2002 74.9277L70.2002 74.8965L70.2002 74.8652L70.2002 74.834L70.2002 74.8027L70.2002 74.7715L70.2002 74.7402L70.2002 74.709L70.2002 74.6777L70.2002 74.6465L70.2002 74.6152L70.2002 74.584L70.2002 74.5547L70.2002 74.5234L70.2002 74.4922L70.2002 74.4629L70.2002 74.4316L70.2002 74.4004L70.2002 74.3691L70.2002 74.3398L70.2002 74.3105L70.2002 74.2793L70.2002 74.248L70.2002 74.2188L70.2002 74.1895L70.2002 74.1602L70.2002 74.1289L70.2002 74.0996L70.2002 74.0703L70.2002 74.041L70.2002 74.0117L70.2002 73.9805L70.2002 73.9512L70.2002 73.9238L70.2002 73.8926L70.2002 73.8652L70.2002 73.8359L70.2002 73.8066L70.2002 73.7773L70.2002 73.748L70.2002 73.7188L70.2002 73.6914L70.2002 73.6621L70.2002 73.6328L70.2002 73.6055L70.2002 73.5762L70.2002 73.5488L70.2002 73.5195L70.2002 73.4922L70.2002 73.4648L70.2002 73.4355L70.2002 73.4082L70.2002 73.3809L70.2002 73.3535L70.2002 73.3262L70.2002 73.2969L70.2002 73.2695L70.2002 73.2422L70.2002 73.2148L70.2002 73.1875L70.2002 73.1621L70.2002 73.1348L70.2002 73.1074L70.2002 73.0801L70.2002 73.0547L70.2002 73.0273L70.2002 73.002L70.2002 72.9746L70.2002 72.9473L70.2002 72.9219L70.2002 72.8965L70.2002 72.8691L70.2002 72.8438L70.2002 72.8184L70.2002 72.791L70.2002 72.7656L70.2002 72.7402L70.2002 72.7148L70.2002 72.6895L70.2002 72.6641L70.2002 72.6387L70.2002 72.6133L70.2002 72.5898L70.2002 72.5645L70.2002 72.5391L70.2002 72.5137L70.2002 72.4902L70.2002 72.4648L70.2002 72.4414L70.2002 72.416L70.2002 72.3926L70.2002 72.3691L70.2002 72.3438L70.2002 72.3203L70.2002 72.2969L70.2002 72.2734L70.2002 72.25L70.2002 72.2266L70.2002 72.2031L70.2002 72.1797L70.2002 72.1562L70.2002 72.1328L70.2002 72.1094L70.2002 72.0879L70.2002 72.0645L70.2002 72.043L70.2002 72.0195L70.2002 71.998L70.2002 71.9746L70.2002 71.9531L70.2002 71.9316L70.2002 71.9082L70.2002 71.8867L70.2002 71.8652L70.2002 71.8438L70.2002 71.8223L70.2002 71.8008L70.2002 71.7812L70.2002 71.7598L70.2002 71.7383L70.2002 71.7168L70.2002 71.6973L70.2002 71.6758L70.2002 71.6562L70.2002 71.6348L70.2002 71.6152L70.2002 71.5938L70.2002 71.5742L70.2002 71.5547L70.2002 71.5352L70.2002 71.5156L70.2002 71.4961L70.2002 71.4766L70.2002 71.457L70.2002 71.4395L70.2002 71.4199L70.2002 71.4004L70.2002 71.3809L70.2002 71.3633L70.2002 71.3438L70.2002 71.3262L70.2002 71.3066L70.2002 71.2891L70.2002 71.2715L70.2002 71.2539L70.2002 71.2363L70.2002 71.2188L70.2002 71.2012L70.2002 71.1836L70.2002 71.166L70.2002 71.1484L70.2002 71.1328L70.2002 71.1152L70.2002 71.0996L70.2002 71.082L70.2002 71.0664L70.2002 71.0508L70.2002 71.0332L70.2002 71.0176L70.2002 71.002L70.2002 70.9863L70.2002 70.9707L70.2002 70.9551L70.2002 70.9395L70.2002 70.9258L70.2002 70.9102L70.2002 70.8945L70.2002 70.8809L70.2002 70.8652L70.2002 70.8516L70.2002 70.8379L70.2002 70.8223L70.2002 70.8086L70.2002 70.7949L70.2002 70.7812L70.2002 70.7676L70.2002 70.7539L70.2002 70.7422L70.2002 70.7285L70.2002 70.7148L70.2002 70.7031L70.2002 70.6895L70.2002 70.6777L70.2002 70.6641L70.2002 70.6523L70.2002 70.6406L70.2002 70.6289L70.2002 70.6172L70.2002 70.6055L70.2002 70.5938L70.2002 70.582L70.2002 70.5703L70.2002 70.5605L70.2002 70.5488L70.2002 70.5391L70.2002 70.5293L70.2002 70.5176L70.2002 70.5078L70.2002 70.498L70.2002 70.4883L70.2002 70.4785L70.2002 70.4688L70.2002 70.459L70.2002 70.4492L70.2002 70.4395L70.2002 70.4316L70.2002 70.4238L70.2002 70.4141L70.2002 70.4062L70.2002 70.3965L70.2002 70.3887L70.2002 70.3809L70.2002 70.373L70.2002 70.3574L70.2002 70.3438L70.2002 70.3301L70.2002 70.3164L70.2002 70.3047L70.2002 70.293L70.2002 70.2812L70.2002 70.2715L70.2002 70.2617L70.2002 70.252L70.2002 70.2402L70.2002 70.2324L70.2002 70.2227L70.2002 70.2148L70.2002 70.207C70.2002 65.8984 73.6919 62.4004 78 62.4004Z"/>
    </symbol>
    <symbol viewBox="0 0 156 156" id='instagram-icon'>
	<path fill-rule="evenodd" clip-rule='evenodd' d="M45.7832 0.957031C33.0859 1.5293 22.0806 4.63477 13.1938 13.4844C4.27588 22.3789 1.20996 33.4277 0.635742 45.9941C0.278809 53.8359 -1.80908 113.086 4.24512 128.625C8.32715 139.107 16.3677 147.168 26.9463 151.264C31.8828 153.184 37.5176 154.482 45.7832 154.861C114.897 157.99 140.518 156.287 151.321 128.625C153.238 123.701 154.558 118.07 154.923 109.826C158.082 40.5352 154.411 25.5156 142.365 13.4844C132.811 3.95312 121.572 -2.53516 45.7832 0.957031ZM46.4194 140.926C38.8525 140.586 34.7466 139.324 32.0068 138.264C25.1147 135.586 19.938 130.43 17.2759 123.578C12.666 111.771 14.1948 55.6953 14.606 46.623C15.0098 37.7344 16.8105 29.6113 23.0815 23.3398C30.8428 15.5977 40.8701 11.8047 109.146 14.8848C118.057 15.2871 126.198 17.084 132.485 23.3398C140.246 31.082 144.096 41.1875 140.96 109.201C140.619 116.75 139.354 120.846 138.29 123.578C131.266 141.578 115.107 144.078 46.4194 140.926ZM109.899 36.5781C109.899 41.7051 114.067 45.8711 119.213 45.8711C124.359 45.8711 128.534 41.7051 128.534 36.5781C128.534 31.4531 124.359 27.2891 119.213 27.2891C114.067 27.2891 109.899 31.4531 109.899 36.5781ZM37.9287 77.9062C37.9287 99.8633 55.772 117.664 77.7832 117.664C99.7939 117.664 117.638 99.8633 117.638 77.9062C117.638 55.9492 99.7939 38.1602 77.7832 38.1602C55.772 38.1602 37.9287 55.9492 37.9287 77.9062ZM51.9146 77.9062C51.9146 63.6602 63.4946 52.1035 77.7832 52.1035C92.0718 52.1035 103.651 63.6602 103.651 77.9062C103.651 92.1582 92.0718 103.721 77.7832 103.721C63.4946 103.721 51.9146 92.1582 51.9146 77.9062Z">
    </symbol>
</svg>
